<svg fill="none" height="20" viewBox="0 0 21 20" width="21" xmlns="http://www.w3.org/2000/svg"><path clip-rule="evenodd" d="m10.7471 0c-5.66477 0-10.252959 4.58819-10.252959 10.2529 0 4.537 2.934899 8.369 7.010449 9.7275.51264.0897.70489-.2179.70489-.487 0-.2435-.01282-1.0509-.01282-1.9096-2.57605.4742-3.24249-.628-3.44755-1.2047-.11535-.2948-.61518-1.2048-1.05093-1.4483-.35885-.1922-.8715-.6664-.01281-.6792.80742-.0128 1.38414.7433 1.57639 1.0509.92276 1.5508 2.39662 1.115 2.98617.8459.08971-.6665.35885-1.115.65362-1.3714-2.28128-.2563-4.66509-1.1406-4.66509-5.06234 0-1.11501.3973-2.03777 1.05093-2.75548-.10253-.25632-.46138-1.30725.10253-2.71703 0 0 .85868-.26914 2.81956 1.05093.82023-.23069 1.69173-.34604 2.56322-.34604.8715 0 1.743.11535 2.5632.34604 1.9609-1.33288 2.8196-1.05093 2.8196-1.05093.5639 1.40978.2051 2.46071.1025 2.71703.6537.71771 1.051 1.62765 1.051 2.75548 0 3.93454-2.3967 4.80604-4.6779 5.06234.3716.3205.692.9356.692 1.8968 0 1.3714-.0128 2.4736-.0128 2.8196 0 .2691.1923.5895.7049.487 4.0499-1.3585 6.9848-5.2034 6.9848-9.7275 0-5.66471-4.5882-10.2529-10.2529-10.2529z" fill="#000" fill-rule="evenodd"/></svg>