<svg fill="none" height="493" viewBox="0 0 391 493" width="391" xmlns="http://www.w3.org/2000/svg"><path d="m250.141 492.707c-112.02 0-213.8501-74.621-242.12006-177.43-19.99604-72.742-1.87109-160.49 46.18396-223.5505 48.3281-63.402 121.9701-96.08995 205.9101-91.257951 4.816.28125 8.914 3.617201 10.164 8.269501 1.262 4.66015-.609 9.59765-4.633 12.25395-81.984 54.207-119.54 154.33-93.457 249.14 26.066 94.824 109.54 161.66 207.7 166.32 5.027.242 9.285 3.813 10.395 8.731 1.102 4.91-1.203 9.96-5.644 12.336-43.66 23.348-88.918 35.18-134.5 35.18z" fill="#000"/></svg>