<svg width="122" height="14" viewBox="0 0 122 14" fill="none" xmlns="http://www.w3.org/2000/svg">
<path d="M0.84517 11V3.36364H2.96307V11H0.84517ZM1.90909 2.37926C1.59422 2.37926 1.3241 2.27486 1.09872 2.06605C0.876657 1.85393 0.765625 1.60038 0.765625 1.3054C0.765625 1.01373 0.876657 0.763494 1.09872 0.554688C1.3241 0.342566 1.59422 0.236505 1.90909 0.236505C2.22396 0.236505 2.49242 0.342566 2.71449 0.554688C2.93987 0.763494 3.05256 1.01373 3.05256 1.3054C3.05256 1.60038 2.93987 1.85393 2.71449 2.06605C2.49242 2.27486 2.22396 2.37926 1.90909 2.37926ZM6.77752 6.58523V11H4.65962V3.36364H6.67809V4.71094H6.76758C6.93661 4.26681 7.21999 3.91548 7.61772 3.65696C8.01545 3.39512 8.49769 3.2642 9.06445 3.2642C9.59476 3.2642 10.0571 3.38021 10.4515 3.61222C10.8459 3.84422 11.1525 4.17566 11.3713 4.60653C11.59 5.03409 11.6994 5.54451 11.6994 6.13778V11H9.5815V6.51562C9.58481 6.0483 9.46549 5.68371 9.22354 5.42188C8.98159 5.15672 8.6485 5.02415 8.22425 5.02415C7.93922 5.02415 7.68732 5.08546 7.46857 5.2081C7.25314 5.33073 7.0841 5.50971 6.96147 5.74503C6.84215 5.97704 6.78084 6.2571 6.77752 6.58523ZM17.4751 3.36364V4.95455H12.7621V3.36364H17.4751ZM13.8409 11V2.81179C13.8409 2.25829 13.9486 1.79924 14.1641 1.43466C14.3828 1.07008 14.6811 0.796638 15.0589 0.614346C15.4368 0.432054 15.866 0.340908 16.3466 0.340908C16.6714 0.340908 16.968 0.365767 17.2365 0.415483C17.5083 0.465199 17.7105 0.509943 17.843 0.549716L17.4652 2.14062C17.3823 2.11411 17.2796 2.08925 17.157 2.06605C17.0376 2.04285 16.915 2.03125 16.7891 2.03125C16.4775 2.03125 16.2604 2.10417 16.1378 2.25C16.0152 2.39252 15.9538 2.59304 15.9538 2.85156V11H13.8409ZM21.9458 11.1491C21.1736 11.1491 20.5057 10.9851 19.9423 10.657C19.3822 10.3255 18.9496 9.86482 18.6447 9.27486C18.3398 8.68158 18.1873 7.99384 18.1873 7.21165C18.1873 6.42282 18.3398 5.73343 18.6447 5.14347C18.9496 4.55019 19.3822 4.08949 19.9423 3.76136C20.5057 3.42992 21.1736 3.2642 21.9458 3.2642C22.7181 3.2642 23.3843 3.42992 23.9444 3.76136C24.5079 4.08949 24.9421 4.55019 25.247 5.14347C25.5519 5.73343 25.7044 6.42282 25.7044 7.21165C25.7044 7.99384 25.5519 8.68158 25.247 9.27486C24.9421 9.86482 24.5079 10.3255 23.9444 10.657C23.3843 10.9851 22.7181 11.1491 21.9458 11.1491ZM21.9558 9.50852C22.3071 9.50852 22.6004 9.40909 22.8358 9.21023C23.0711 9.00805 23.2484 8.73295 23.3677 8.38494C23.4904 8.03693 23.5517 7.64086 23.5517 7.19673C23.5517 6.7526 23.4904 6.35653 23.3677 6.00852C23.2484 5.66051 23.0711 5.38542 22.8358 5.18324C22.6004 4.98106 22.3071 4.87997 21.9558 4.87997C21.6011 4.87997 21.3029 4.98106 21.0609 5.18324C20.8223 5.38542 20.6416 5.66051 20.519 6.00852C20.3997 6.35653 20.34 6.7526 20.34 7.19673C20.34 7.64086 20.3997 8.03693 20.519 8.38494C20.6416 8.73295 20.8223 9.00805 21.0609 9.21023C21.3029 9.40909 21.6011 9.50852 21.9558 9.50852ZM33.7484 13.9332C32.6911 13.9332 31.7498 13.7891 30.9245 13.5007C30.0993 13.2157 29.4016 12.7964 28.8315 12.2429C28.2614 11.6927 27.8272 11.0199 27.5289 10.2244C27.2306 9.42898 27.0815 8.52415 27.0815 7.50994C27.0815 6.509 27.2306 5.60085 27.5289 4.78551C27.8306 3.97017 28.2697 3.27083 28.8464 2.6875C29.4231 2.10085 30.1274 1.65009 30.9593 1.33523C31.7946 1.02036 32.7458 0.862926 33.813 0.862926C34.8007 0.862926 35.6824 1.0071 36.4579 1.29545C37.2368 1.58381 37.8964 1.99479 38.4366 2.52841C38.9802 3.05871 39.3928 3.6901 39.6745 4.42259C39.9596 5.15175 40.1004 5.95881 40.0971 6.84375C40.1004 7.4536 40.0474 8.01373 39.938 8.52415C39.8287 9.03456 39.6563 9.48035 39.421 9.86151C39.189 10.2393 38.8841 10.5393 38.5062 10.7614C38.1284 10.9801 37.671 11.1044 37.1341 11.1342C36.7496 11.1641 36.438 11.1359 36.1994 11.0497C35.9608 10.9635 35.7785 10.8359 35.6525 10.6669C35.5299 10.4946 35.4503 10.294 35.4139 10.0653H35.3542C35.2747 10.2642 35.1189 10.4448 34.8869 10.6072C34.6549 10.7663 34.3715 10.8906 34.0368 10.9801C33.7053 11.0663 33.3523 11.0978 32.9778 11.0746C32.5867 11.0514 32.2155 10.9602 31.8642 10.8011C31.5162 10.642 31.2063 10.4117 30.9345 10.1101C30.666 9.80848 30.4539 9.43561 30.2981 8.99148C30.1457 8.54735 30.0678 8.03362 30.0645 7.45028C30.0678 6.87358 30.149 6.37145 30.3081 5.94389C30.4705 5.51633 30.6842 5.15672 30.9494 4.86506C31.2179 4.57339 31.5162 4.3447 31.8443 4.17898C32.1724 4.01326 32.5022 3.9072 32.8336 3.8608C33.2082 3.80445 33.5628 3.80445 33.8975 3.8608C34.2323 3.91714 34.514 4.00829 34.7427 4.13423C34.9747 4.26018 35.1189 4.39607 35.1752 4.5419H35.2449V3.98508H36.801V8.83736C36.8043 9.06605 36.8556 9.24337 36.9551 9.36932C37.0545 9.49527 37.1887 9.55824 37.3578 9.55824C37.5865 9.55824 37.777 9.45715 37.9295 9.25497C38.0853 9.05279 38.2013 8.7429 38.2775 8.32528C38.3571 7.90767 38.3968 7.37571 38.3968 6.7294C38.3968 6.1063 38.314 5.55942 38.1483 5.08878C37.9859 4.61482 37.7572 4.21212 37.4622 3.88068C37.1705 3.54593 36.8308 3.27415 36.443 3.06534C36.0552 2.85653 35.6343 2.70407 35.1802 2.60795C34.7295 2.51184 34.2654 2.46378 33.7882 2.46378C32.9629 2.46378 32.242 2.58973 31.6255 2.84162C31.0091 3.0902 30.4953 3.43987 30.0843 3.89062C29.6734 4.34138 29.3651 4.87003 29.1596 5.47656C28.9574 6.07978 28.8547 6.73769 28.8514 7.45028C28.8547 8.2358 28.9641 8.93182 29.1795 9.53835C29.3983 10.1416 29.7198 10.6487 30.144 11.0597C30.5682 11.4706 31.0919 11.7822 31.715 11.9943C32.3381 12.2064 33.054 12.3125 33.8627 12.3125C34.2439 12.3125 34.6168 12.2843 34.9814 12.228C35.3459 12.175 35.6757 12.1087 35.9707 12.0291C36.2657 11.9529 36.5027 11.8783 36.6816 11.8054L37.1738 13.2472C36.965 13.3665 36.6816 13.4775 36.3237 13.5803C35.969 13.6863 35.568 13.7708 35.1206 13.8338C34.6764 13.9001 34.219 13.9332 33.7484 13.9332ZM33.5197 9.43892C33.9241 9.43892 34.2456 9.36103 34.4842 9.20526C34.7261 9.04948 34.8985 8.81913 35.0012 8.5142C35.1073 8.20597 35.157 7.82647 35.1504 7.37571C35.1471 6.97798 35.0957 6.64157 34.9963 6.36648C34.9002 6.08807 34.7328 5.8776 34.4941 5.73509C34.2588 5.58925 33.9307 5.51634 33.5098 5.51634C33.1419 5.51634 32.8287 5.59422 32.5701 5.75C32.3149 5.90578 32.1194 6.12453 31.9835 6.40625C31.8509 6.68466 31.783 7.01278 31.7797 7.39062C31.783 7.74195 31.8393 8.07505 31.9487 8.38991C32.0581 8.70147 32.2387 8.95502 32.4906 9.15057C32.7425 9.3428 33.0855 9.43892 33.5197 9.43892ZM45.6119 3.36364V4.95455H40.8988V3.36364H45.6119ZM41.9776 11V2.81179C41.9776 2.25829 42.0853 1.79924 42.3008 1.43466C42.5195 1.07008 42.8178 0.796638 43.1957 0.614346C43.5735 0.432054 44.0027 0.340908 44.4833 0.340908C44.8081 0.340908 45.1048 0.365767 45.3732 0.415483C45.645 0.465199 45.8472 0.509943 45.9798 0.549716L45.6019 2.14062C45.5191 2.11411 45.4163 2.08925 45.2937 2.06605C45.1744 2.04285 45.0517 2.03125 44.9258 2.03125C44.6142 2.03125 44.3971 2.10417 44.2745 2.25C44.1519 2.39252 44.0906 2.59304 44.0906 2.85156V11H41.9776ZM46.9057 11V3.36364H49.0236V11H46.9057ZM47.9696 2.37926C47.6548 2.37926 47.3846 2.27486 47.1593 2.06605C46.9372 1.85393 46.8262 1.60038 46.8262 1.3054C46.8262 1.01373 46.9372 0.763494 47.1593 0.554688C47.3846 0.342566 47.6548 0.236505 47.9696 0.236505C48.2845 0.236505 48.553 0.342566 48.775 0.554688C49.0004 0.763494 49.1131 1.01373 49.1131 1.3054C49.1131 1.60038 49.0004 1.85393 48.775 2.06605C48.553 2.27486 48.2845 2.37926 47.9696 2.37926ZM54.8267 3.36364V4.95455H50.1136V3.36364H54.8267ZM51.1925 11V2.81179C51.1925 2.25829 51.3002 1.79924 51.5156 1.43466C51.7344 1.07008 52.0327 0.796638 52.4105 0.614346C52.7884 0.432054 53.2176 0.340908 53.6982 0.340908C54.023 0.340908 54.3196 0.365767 54.5881 0.415483C54.8598 0.465199 55.062 0.509943 55.1946 0.549716L54.8168 2.14062C54.7339 2.11411 54.6312 2.08925 54.5085 2.06605C54.3892 2.04285 54.2666 2.03125 54.1406 2.03125C53.8291 2.03125 53.612 2.10417 53.4893 2.25C53.3667 2.39252 53.3054 2.59304 53.3054 2.85156V11H51.1925ZM60.1824 3.36364V4.95455H55.5836V3.36364H60.1824ZM56.6277 1.53409H58.7456V8.65341C58.7456 8.84896 58.7754 9.00142 58.835 9.1108C58.8947 9.21686 58.9776 9.29143 59.0836 9.33452C59.193 9.3776 59.319 9.39915 59.4615 9.39915C59.5609 9.39915 59.6603 9.39086 59.7598 9.37429C59.8592 9.3544 59.9354 9.33949 59.9885 9.32955L60.3216 10.9055C60.2155 10.9387 60.0663 10.9768 59.8741 11.0199C59.6819 11.0663 59.4482 11.0945 59.1731 11.1044C58.6627 11.1243 58.2153 11.0563 57.8308 10.9006C57.4496 10.7448 57.153 10.5028 56.9409 10.1747C56.7288 9.84659 56.6243 9.43229 56.6277 8.93182V1.53409ZM63.8439 6.58523V11H61.726V0.818182H63.7843V4.71094H63.8738C64.0461 4.26018 64.3245 3.9072 64.709 3.65199C65.0935 3.39347 65.5757 3.2642 66.1557 3.2642C66.686 3.2642 67.1484 3.38021 67.5428 3.61222C67.9405 3.84091 68.2488 4.17069 68.4675 4.60156C68.6896 5.02912 68.7989 5.54119 68.7956 6.13778V11H66.6777V6.51562C66.681 6.04498 66.5617 5.67874 66.3198 5.4169C66.0811 5.15507 65.7464 5.02415 65.3155 5.02415C65.0272 5.02415 64.772 5.08546 64.5499 5.2081C64.3311 5.33073 64.1588 5.50971 64.0328 5.74503C63.9102 5.97704 63.8472 6.2571 63.8439 6.58523ZM74.5241 3.36364V4.95455H69.9254V3.36364H74.5241ZM70.9695 1.53409H73.0874V8.65341C73.0874 8.84896 73.1172 9.00142 73.1768 9.1108C73.2365 9.21686 73.3194 9.29143 73.4254 9.33452C73.5348 9.3776 73.6607 9.39915 73.8033 9.39915C73.9027 9.39915 74.0021 9.39086 74.1016 9.37429C74.201 9.3544 74.2772 9.33949 74.3303 9.32955L74.6634 10.9055C74.5573 10.9387 74.4081 10.9768 74.2159 11.0199C74.0237 11.0663 73.79 11.0945 73.5149 11.1044C73.0045 11.1243 72.5571 11.0563 72.1726 10.9006C71.7914 10.7448 71.4948 10.5028 71.2827 10.1747C71.0705 9.84659 70.9661 9.43229 70.9695 8.93182V1.53409ZM75.9038 11V3.36364H77.957V4.69602H78.0366C78.1758 4.22206 78.4094 3.86411 78.7376 3.62216C79.0657 3.37689 79.4435 3.25426 79.8711 3.25426C79.9772 3.25426 80.0915 3.26089 80.2141 3.27415C80.3368 3.28741 80.4445 3.30563 80.5373 3.32883V5.2081C80.4379 5.17827 80.3003 5.15175 80.1246 5.12855C79.949 5.10535 79.7882 5.09375 79.6424 5.09375C79.3308 5.09375 79.0524 5.1617 78.8072 5.29759C78.5652 5.43016 78.373 5.61577 78.2305 5.8544C78.0913 6.09304 78.0217 6.36813 78.0217 6.67969V11H75.9038ZM83.1722 13.8636C82.9038 13.8636 82.6519 13.8421 82.4165 13.799C82.1845 13.7592 81.9923 13.7079 81.8398 13.6449L82.3171 12.0639C82.5657 12.1402 82.7894 12.1816 82.9883 12.1882C83.1905 12.1948 83.3645 12.1484 83.5103 12.049C83.6594 11.9496 83.7804 11.7805 83.8732 11.5419L83.9975 11.2188L81.2582 3.36364H83.4854L85.0664 8.97159H85.146L86.7418 3.36364H88.984L86.016 11.8253C85.8735 12.2363 85.6796 12.5942 85.4343 12.8991C85.1924 13.2074 84.8858 13.4444 84.5146 13.6101C84.1433 13.7791 83.6959 13.8636 83.1722 13.8636ZM90.8272 11.1293C90.4991 11.1293 90.2174 11.0133 89.9821 10.7812C89.7501 10.5459 89.6341 10.2642 89.6341 9.93608C89.6341 9.61127 89.7501 9.33286 89.9821 9.10085C90.2174 8.86884 90.4991 8.75284 90.8272 8.75284C91.1454 8.75284 91.4238 8.86884 91.6625 9.10085C91.9011 9.33286 92.0204 9.61127 92.0204 9.93608C92.0204 10.1548 91.9641 10.3554 91.8514 10.5376C91.742 10.7166 91.5978 10.8608 91.4189 10.9702C91.2399 11.0762 91.0427 11.1293 90.8272 11.1293ZM97.2095 11.1491C96.4273 11.1491 95.7545 10.9834 95.1911 10.652C94.6309 10.3172 94.2 9.85322 93.8984 9.25994C93.6001 8.66667 93.451 7.9839 93.451 7.21165C93.451 6.42945 93.6018 5.74337 93.9034 5.15341C94.2083 4.56013 94.6409 4.09777 95.201 3.76633C95.7611 3.43158 96.4273 3.2642 97.1996 3.2642C97.8658 3.2642 98.4491 3.38518 98.9496 3.62713C99.45 3.86908 99.8461 4.20881 100.138 4.64631C100.429 5.08381 100.59 5.59754 100.62 6.1875H98.6214C98.5651 5.80634 98.416 5.49976 98.174 5.26776C97.9354 5.03243 97.6222 4.91477 97.2344 4.91477C96.9062 4.91477 96.6196 5.00426 96.3743 5.18324C96.1323 5.3589 95.9434 5.61577 95.8075 5.95384C95.6716 6.2919 95.6037 6.70123 95.6037 7.18182C95.6037 7.66903 95.67 8.08333 95.8026 8.42472C95.9384 8.7661 96.129 9.02628 96.3743 9.20526C96.6196 9.38423 96.9062 9.47372 97.2344 9.47372C97.4763 9.47372 97.6934 9.42401 97.8857 9.32457C98.0812 9.22514 98.242 9.08097 98.3679 8.89205C98.4972 8.69981 98.5817 8.46946 98.6214 8.20099H100.62C100.587 8.78433 100.428 9.29806 100.143 9.74219C99.861 10.183 99.4716 10.5277 98.9744 10.7763C98.4773 11.0249 97.889 11.1491 97.2095 11.1491ZM105.426 11.1491C104.654 11.1491 103.986 10.9851 103.423 10.657C102.863 10.3255 102.43 9.86482 102.125 9.27486C101.82 8.68158 101.668 7.99384 101.668 7.21165C101.668 6.42282 101.82 5.73343 102.125 5.14347C102.43 4.55019 102.863 4.08949 103.423 3.76136C103.986 3.42992 104.654 3.2642 105.426 3.2642C106.199 3.2642 106.865 3.42992 107.425 3.76136C107.988 4.08949 108.423 4.55019 108.727 5.14347C109.032 5.73343 109.185 6.42282 109.185 7.21165C109.185 7.99384 109.032 8.68158 108.727 9.27486C108.423 9.86482 107.988 10.3255 107.425 10.657C106.865 10.9851 106.199 11.1491 105.426 11.1491ZM105.436 9.50852C105.788 9.50852 106.081 9.40909 106.316 9.21023C106.552 9.00805 106.729 8.73295 106.848 8.38494C106.971 8.03693 107.032 7.64086 107.032 7.19673C107.032 6.7526 106.971 6.35653 106.848 6.00852C106.729 5.66051 106.552 5.38542 106.316 5.18324C106.081 4.98106 105.788 4.87997 105.436 4.87997C105.082 4.87997 104.783 4.98106 104.541 5.18324C104.303 5.38542 104.122 5.66051 103.999 6.00852C103.88 6.35653 103.82 6.7526 103.82 7.19673C103.82 7.64086 103.88 8.03693 103.999 8.38494C104.122 8.73295 104.303 9.00805 104.541 9.21023C104.783 9.40909 105.082 9.50852 105.436 9.50852ZM110.562 11V3.36364H112.58V4.71094H112.67C112.829 4.26349 113.094 3.91051 113.465 3.65199C113.837 3.39347 114.281 3.2642 114.798 3.2642C115.321 3.2642 115.767 3.39512 116.135 3.65696C116.503 3.91548 116.748 4.26681 116.871 4.71094H116.95C117.106 4.27344 117.388 3.92377 117.796 3.66193C118.207 3.39678 118.692 3.2642 119.252 3.2642C119.965 3.2642 120.543 3.49124 120.987 3.94531C121.435 4.39607 121.659 5.03575 121.659 5.86435V11H119.546V6.28196C119.546 5.85772 119.433 5.53954 119.208 5.32741C118.982 5.11529 118.7 5.00923 118.362 5.00923C117.978 5.00923 117.678 5.13187 117.463 5.37713C117.247 5.61908 117.139 5.93892 117.139 6.33665V11H115.086V6.23722C115.086 5.86269 114.978 5.56439 114.763 5.34233C114.551 5.12026 114.271 5.00923 113.923 5.00923C113.687 5.00923 113.475 5.06889 113.286 5.18821C113.101 5.30421 112.953 5.46828 112.844 5.6804C112.735 5.8892 112.68 6.13447 112.68 6.41619V11H110.562Z" fill="#2DD4BF"/>
</svg>
