<svg fill="none" height="14" viewBox="0 0 122 14" width="122" xmlns="http://www.w3.org/2000/svg"><path d="m.84517 11v-7.63636h2.1179v7.63636zm1.06392-8.62074c-.31487 0-.58499-.1044-.81037-.31321-.222063-.21212-.333095-.46567-.333095-.76065 0-.29167.111032-.541906.333095-.750712.22538-.212122.4955-.318183.81037-.318183s.58333.106061.8054.318183c.22538.208806.33807.459042.33807.750712 0 .29498-.11269.54853-.33807.76065-.22207.20881-.49053.31321-.8054.31321zm4.86843 4.20597v4.41477h-2.1179v-7.63636h2.01847v1.3473h.08949c.16903-.44413.45241-.79546.85014-1.05398.39773-.26184.87997-.39276 1.44673-.39276.53031 0 .99265.11601 1.38705.34802.3944.232.701.56344.9198.99431.2187.42756.3281.93798.3281 1.53125v4.86222h-2.1179v-4.48438c.00331-.46732-.11601-.83191-.35796-1.09374-.24195-.26516-.57504-.39773-.99929-.39773-.28503 0-.53693.06131-.75568.18395-.21543.12263-.38447.30161-.5071.53693-.11932.23201-.18063.51207-.18395.8402zm10.69758-3.22159v1.59091h-4.713v-1.59091zm-3.6342 7.63636v-8.18821c0-.5535.1077-1.01255.3232-1.37713.2187-.36458.517-.638022.8948-.820314.3779-.182292.8071-.273438 1.2877-.273438.3248 0 .6214.024859.8899.074575.2718.049716.474.09446.6065.134233l-.3778 1.590904c-.0829-.02651-.1856-.05137-.3082-.07457-.1194-.0232-.242-.0348-.3679-.0348-.3116 0-.5287.07292-.6513.21875-.1226.14252-.184.34304-.184.60156v8.14844zm8.1049.1491c-.7722 0-1.4401-.164-2.0035-.4921-.5601-.3315-.9927-.79218-1.2976-1.38214-.3049-.59328-.4574-1.28102-.4574-2.06321 0-.78883.1525-1.47822.4574-2.06818.3049-.59328.7375-1.05398 1.2976-1.38211.5634-.33144 1.2313-.49716 2.0035-.49716.7723 0 1.4385.16572 1.9986.49716.5635.32813.9977.78883 1.3026 1.38211.3049.58996.4574 1.27935.4574 2.06818 0 .78219-.1525 1.46993-.4574 2.06321-.3049.58996-.7391 1.05064-1.3026 1.38214-.5601.3281-1.2263.4921-1.9986.4921zm.01-1.64058c.3513 0 .6446-.09943.88-.29829.2353-.20218.4126-.47728.5319-.82529.1227-.34801.184-.74408.184-1.18821s-.0613-.8402-.184-1.18821c-.1193-.34801-.2966-.6231-.5319-.82528-.2354-.20218-.5287-.30327-.88-.30327-.3547 0-.6529.10109-.8949.30327-.2386.20218-.4193.47727-.5419.82528-.1193.34801-.179.74408-.179 1.18821s.0597.8402.179 1.18821c.1226.34801.3033.62311.5419.82529.242.19886.5402.29829.8949.29829zm11.7926 4.42468c-1.0573 0-1.9986-.1441-2.8239-.4325-.8252-.285-1.5229-.7043-2.093-1.2578-.5701-.5502-1.0043-1.223-1.3026-2.0185-.2983-.79542-.4474-1.70025-.4474-2.71446 0-1.00094.1491-1.90909.4474-2.72443.3017-.81534.7408-1.51468 1.3175-2.09801.5767-.58665 1.281-1.03741 2.1129-1.35227.8353-.31487 1.7865-.472304 2.8537-.472304.9877 0 1.8694.144174 2.6449.432524.7789.28836 1.4385.69934 1.9787 1.23296.5436.5303.9562 1.16169 1.2379 1.89418.2851.72916.4259 1.53622.4226 2.42116.0033.60985-.0497 1.16998-.1591 1.6804-.1093.51041-.2817.9562-.517 1.33736-.232.37779-.5369.67779-.9148.89989-.3778.2187-.8352.343-1.3721.3728-.3845.0299-.6961.0017-.9347-.0845s-.4209-.2138-.5469-.3828c-.1226-.1723-.2022-.3729-.2386-.6016h-.0597c-.0795.1989-.2353.3795-.4673.5419-.232.1591-.5154.2834-.8501.3729-.3315.0862-.6845.1177-1.059.0945-.3911-.0232-.7623-.1144-1.1136-.2735-.348-.1591-.6579-.3894-.9297-.691-.2685-.30162-.4806-.67449-.6364-1.11862-.1524-.44413-.2303-.95786-.2336-1.5412.0033-.5767.0845-1.07883.2436-1.50639.1624-.42756.3761-.78717.6413-1.07883.2685-.29167.5668-.52036.8949-.68608s.6579-.27178.9893-.31818c.3746-.05635.7292-.05635 1.0639 0 .3348.05634.6165.14749.8452.27343.232.12595.3762.26184.4325.40767h.0697v-.55682h1.5561v4.85228c.0033.22869.0546.40601.1541.53196.0994.12595.2336.18892.4027.18892.2287 0 .4192-.10109.5717-.30327.1558-.20218.2718-.51207.348-.92969.0796-.41761.1193-.94957.1193-1.59588 0-.6231-.0828-1.16998-.2485-1.64062-.1624-.47396-.3911-.87666-.6861-1.2081-.2917-.33475-.6314-.60653-1.0192-.81534s-.8087-.36127-1.2628-.45739c-.4507-.09611-.9148-.14417-1.392-.14417-.8253 0-1.5462.12595-2.1627.37784-.6164.24858-1.1302.59825-1.5412 1.049-.4109.45076-.7192.97941-.9247 1.58594-.2022.60322-.3049 1.26113-.3082 1.97372.0033.78552.1127 1.48154.3281 2.08807.2188.60325.5403 1.11035.9645 1.52135.4242.4109.9479.7225 1.571.9346s1.339.3182 2.1477.3182c.3812 0 .7541-.0282 1.1187-.0845.3645-.053.6943-.1193.9893-.1989.295-.0762.532-.1508.7109-.2237l.4922 1.4418c-.2088.1193-.4922.2303-.8501.3331-.3547.106-.7557.1905-1.2031.2535-.4442.0663-.9016.0994-1.3722.0994zm-.2287-4.49428c.4044 0 .7259-.07789.9645-.23366.2419-.15578.4143-.38613.517-.69106.1061-.30823.1558-.68773.1492-1.13849-.0033-.39773-.0547-.73414-.1541-1.00923-.0961-.27841-.2635-.48888-.5022-.63139-.2353-.14584-.5634-.21875-.9843-.21875-.3679 0-.6811.07788-.9397.23366-.2552.15578-.4507.37453-.5866.65625-.1326.27841-.2005.60653-.2038.98437.0033.35133.0596.68443.169.99929.1094.31156.29.56511.5419.76066.2519.19223.5949.28835 1.0291.28835zm12.0922-6.07528v1.59091h-4.7131v-1.59091zm-3.6343 7.63636v-8.18821c0-.5535.1077-1.01255.3232-1.37713.2187-.36458.517-.638022.8949-.820314.3778-.182292.807-.273438 1.2876-.273438.3248 0 .6215.024859.8899.074575.2718.049716.474.09446.6066.134233l-.3779 1.590904c-.0828-.02651-.1856-.05137-.3082-.07457-.1193-.0232-.242-.0348-.3679-.0348-.3116 0-.5287.07292-.6513.21875-.1226.14252-.1839.34304-.1839.60156v8.14844zm4.9281 0v-7.63636h2.1179v7.63636zm1.0639-8.62074c-.3148 0-.585-.1044-.8103-.31321-.2221-.21212-.3331-.46567-.3331-.76065 0-.29167.111-.541906.3331-.750712.2253-.212122.4955-.318183.8103-.318183.3149 0 .5834.106061.8054.318183.2254.208806.3381.459042.3381.750712 0 .29498-.1127.54853-.3381.76065-.222.20881-.4905.31321-.8054.31321zm6.8571.98438v1.59091h-4.7131v-1.59091zm-3.6342 7.63636v-8.18821c0-.5535.1077-1.01255.3231-1.37713.2188-.36458.5171-.638022.8949-.820314.3779-.182292.8071-.273438 1.2877-.273438.3248 0 .6214.024859.8899.074575.2717.049716.4739.09446.6065.134233l-.3778 1.590904c-.0829-.02651-.1856-.05137-.3083-.07457-.1193-.0232-.2419-.0348-.3679-.0348-.3115 0-.5286.07292-.6513.21875-.1226.14252-.1839.34304-.1839.60156v8.14844zm8.9899-7.63636v1.59091h-4.5988v-1.59091zm-3.5547-1.82955h2.1179v7.11932c0 .19555.0298.34801.0894.45739.0597.10606.1426.18063.2486.22372.1094.04308.2354.06463.3779.06463.0994 0 .1988-.00829.2983-.02486.0994-.01989.1756-.0348.2287-.04474l.3331 1.57595c-.1061.0332-.2553.0713-.4475.1144-.1922.0464-.4259.0746-.701.0845-.5104.0199-.9578-.0481-1.3423-.2038-.3812-.1558-.6778-.3978-.8899-.7259-.2121-.32811-.3166-.74241-.3132-1.24288zm7.2162 5.05114v4.41477h-2.1179v-10.181818h2.0583v3.892758h.0895c.1723-.45076.4507-.80374.8352-1.05895.3845-.25852.8667-.38779 1.4467-.38779.5303 0 .9927.11601 1.3871.34802.3977.22869.706.55847.9247.98934.2221.42756.3314.93963.3281 1.53622v4.86222h-2.1179v-4.48438c.0033-.47064-.116-.83688-.3579-1.09872-.2387-.26183-.5734-.39275-1.0043-.39275-.2883 0-.5435.06131-.7656.18395-.2188.12263-.3911.30161-.5171.53693-.1226.23201-.1856.51207-.1889.8402zm10.6802-3.22159v1.59091h-4.5987v-1.59091zm-3.5546-1.82955h2.1179v7.11932c0 .19555.0298.34801.0894.45739.0597.10606.1426.18063.2486.22372.1094.04308.2353.06463.3779.06463.0994 0 .1988-.00829.2983-.02486.0994-.01989.1756-.0348.2287-.04474l.3331 1.57595c-.1061.0332-.2553.0713-.4475.1144-.1922.0464-.4259.0746-.701.0845-.5104.0199-.9578-.0481-1.3423-.2038-.3812-.1558-.6778-.3978-.8899-.7259-.2122-.32811-.3166-.74241-.3132-1.24288zm4.9343 9.46591v-7.63636h2.0532v1.33238h.0796c.1392-.47396.3728-.83191.701-1.07386.3281-.24527.7059-.3679 1.1335-.3679.1061 0 .2204.00663.343.01989.1227.01326.2304.03148.3232.05468v1.87927c-.0994-.02983-.237-.05635-.4127-.07955-.1756-.0232-.3364-.0348-.4822-.0348-.3116 0-.59.06795-.8352.20384-.242.13257-.4342.31818-.5767.55681-.1392.23864-.2088.51373-.2088.82529v4.32031zm7.2684 2.8636c-.2684 0-.5203-.0215-.7557-.0646-.232-.0398-.4242-.0911-.5767-.1541l.4773-1.581c.2486.0763.4723.1177.6712.1243.2022.0066.3762-.0398.522-.1392.1491-.0994.2701-.2685.3629-.5071l.1243-.3231-2.7393-7.85516h2.2272l1.581 5.60795h.0796l1.5958-5.60795h2.2422l-2.968 8.46166c-.1425.411-.3364.7689-.5817 1.0738-.2419.3083-.5485.5453-.9197.711-.3713.169-.8187.2535-1.3424.2535zm7.655-2.7343c-.3281 0-.6098-.116-.8451-.3481-.232-.2353-.348-.517-.348-.84512 0-.32481.116-.60322.348-.83523.2353-.23201.517-.34801.8451-.34801.3182 0 .5966.116.8353.34801.2386.23201.3579.51042.3579.83523 0 .21872-.0563.41932-.169.60152-.1094.179-.2536.3232-.4325.4326-.179.106-.3762.1591-.5917.1591zm6.3823.0198c-.7822 0-1.455-.1657-2.0184-.4971-.5602-.3348-.9911-.79878-1.2927-1.39206-.2983-.59327-.4474-1.27604-.4474-2.04829 0-.7822.1508-1.46828.4524-2.05824.3049-.59328.7375-1.05564 1.2976-1.38708.5601-.33475 1.2263-.50213 1.9986-.50213.6662 0 1.2495.12098 1.75.36293.5004.24195.8965.58168 1.1884 1.01918.291.4375.452.95123.482 1.54119h-1.9986c-.0563-.38116-.2054-.68774-.4474-.91974-.2386-.23533-.5518-.35299-.9396-.35299-.3282 0-.6148.08949-.8601.26847-.242.17566-.4309.43253-.5668.7706-.1359.33806-.2038.74739-.2038 1.22798 0 .48721.0663.90151.1989 1.2429.1358.34138.3264.60156.5717.78054.2453.17897.5319.26846.8601.26846.2419 0 .459-.04971.6513-.14915.1955-.09943.3563-.2436.4822-.43252.1293-.19224.2138-.42259.2535-.69106h1.9986c-.033.58334-.192 1.09707-.477 1.5412-.282.44081-.6714.78551-1.1686 1.03411-.4971.2486-1.0854.3728-1.7649.3728zm8.2165 0c-.772 0-1.44-.164-2.003-.4921-.56-.3315-.993-.79218-1.298-1.38214-.305-.59328-.457-1.28102-.457-2.06321 0-.78883.152-1.47822.457-2.06818.305-.59328.738-1.05398 1.298-1.38211.563-.33144 1.231-.49716 2.003-.49716.773 0 1.439.16572 1.999.49716.563.32813.998.78883 1.302 1.38211.305.58996.458 1.27935.458 2.06818 0 .78219-.153 1.46993-.458 2.06321-.304.58996-.739 1.05064-1.302 1.38214-.56.3281-1.226.4921-1.999.4921zm.01-1.64058c.352 0 .645-.09943.88-.29829.236-.20218.413-.47728.532-.82529.123-.34801.184-.74408.184-1.18821s-.061-.8402-.184-1.18821c-.119-.34801-.296-.6231-.532-.82528-.235-.20218-.528-.30327-.88-.30327-.354 0-.653.10109-.895.30327-.238.20218-.419.47727-.542.82528-.119.34801-.179.74408-.179 1.18821s.06.8402.179 1.18821c.123.34801.304.62311.542.82529.242.19886.541.29829.895.29829zm5.126 1.49148v-7.63636h2.018v1.3473h.09c.159-.44745.424-.80043.795-1.05895.372-.25852.816-.38779 1.333-.38779.523 0 .969.13092 1.337.39276.368.25852.613.60985.736 1.05398h.079c.156-.4375.438-.78717.846-1.04901.411-.26515.896-.39773 1.456-.39773.713 0 1.291.22704 1.735.68111.448.45076.672 1.09044.672 1.91904v5.13565h-2.113v-4.71804c0-.42424-.113-.74242-.338-.95455-.226-.21212-.508-.31818-.846-.31818-.384 0-.684.12264-.899.3679-.216.24195-.324.56179-.324.95952v4.66335h-2.053v-4.76278c0-.37453-.108-.67283-.323-.89489-.212-.22207-.492-.3331-.84-.3331-.236 0-.448.05966-.637.17898-.185.116-.333.28007-.442.49219-.109.2088-.164.45407-.164.73579v4.58381z" fill="#2dd4bf"/></svg>