<svg fill="none" height="14" viewBox="0 0 147 14" width="147" xmlns="http://www.w3.org/2000/svg"><path d="m.84517 13.8636v-10.49996h2.08807v1.28267h.09446c.0928-.2055.22703-.4143.4027-.62642.17898-.21544.41098-.39442.69602-.53694.28835-.14583.64631-.21875 1.07386-.21875.55682 0 1.07055.14584 1.5412.4375.47064.28836.84683.7242 1.12855 1.30753.28172.58002.42258 1.30753.42258 2.18253 0 .8518-.13754 1.57102-.41264 2.15767-.27178.58334-.64299 1.02577-1.11363 1.32737-.46733.2983-.99101.4475-1.57103.4475-.41098 0-.76065-.068-1.049-.2038-.28504-.1359-.51871-.3066-.701-.5121-.18229-.2088-.32149-.41929-.41761-.63141h-.06463v4.08661zm2.07315-6.68178c0 .45407.06298.85014.18892 1.18821.12595.33807.30824.60156.54688.79048.23864.18561.52865.27841.87003.27841.34469 0 .63636-.09446.875-.28338.23863-.19224.41927-.45739.5419-.79545.12595-.34139.18892-.73414.18892-1.17827 0-.44082-.06131-.8286-.18395-1.16335-.12263-.33476-.30326-.5966-.5419-.78552s-.53196-.28338-.87997-.28338c-.3447 0-.63637.09115-.875.27344-.23532.18229-.41596.44082-.54191.77557-.12594.33475-.18892.72917-.18892 1.18324zm6.78623 3.81818v-7.63636h2.05325v1.33238h.0796c.1392-.47396.3728-.83191.701-1.07386.3281-.24527.7059-.3679 1.1335-.3679.106 0 .2204.00663.343.01989s.2304.03148.3232.05468v1.87927c-.0995-.02983-.237-.05635-.4127-.07955-.1756-.0232-.3364-.0348-.4822-.0348-.3116 0-.59.06795-.8352.20384-.242.13257-.4342.31818-.5768.55681-.1392.23864-.2088.51373-.2088.82529v4.32031zm5.72855 0v-7.63636h2.1179v7.63636zm1.0639-8.62074c-.3149 0-.585-.1044-.8104-.31321-.2221-.21212-.3331-.46567-.3331-.76065 0-.29167.111-.541906.3331-.750712.2254-.212122.4955-.318183.8104-.318183.3148 0 .5833.106061.8054.318183.2254.208806.338.459042.338.750712 0 .29498-.1126.54853-.338.76065-.2221.20881-.4906.31321-.8054.31321zm9.8698.98438-2.6697 7.63636h-2.3864l-2.6697-7.63636h2.2372l1.5859 5.46377h.0796l1.5809-5.46377zm3.0563 7.78056c-.4872 0-.9214-.0845-1.3025-.2536-.3812-.1723-.6828-.4259-.9049-.7606-.2187-.3381-.3281-.75902-.3281-1.26281 0-.42424.0779-.78054.2337-1.06889.1557-.28836.3679-.52036.6363-.69603.2685-.17566.5734-.30824.9148-.39772.3447-.08949.706-.15247 1.0838-.18893.4441-.0464.8021-.08948 1.0739-.12926.2718-.04308.469-.10606.5916-.18892s.1839-.20549.1839-.36789v-.02983c0-.31487-.0994-.55848-.2982-.73083-.1956-.17235-.474-.25852-.8353-.25852-.3811 0-.6844.08452-.9098.25355-.2254.16572-.3745.37453-.4474.62642l-1.9588-.15909c.0994-.46402.295-.86506.5866-1.20313.2917-.34138.6679-.60322 1.1286-.78551.464-.1856 1.0009-.27841 1.6108-.27841.4242 0 .8302.04972 1.218.14915.3911.09943.7375.25355 1.0391.46236.3049.20881.5452.47727.7208.8054.1757.32481.2635.71425.2635 1.16832v5.15057h-2.0085v-1.05895h-.0596c-.1227.23865-.2867.44915-.4922.63135-.2055.179-.4524.3199-.7408.4226-.2883.0995-.6214.1492-.9993.1492zm.6066-1.46167c.3115 0 .5866-.06132.8252-.18395.2387-.12595.4259-.29498.5618-.5071s.2039-.45242.2039-.72088v-.81037c-.0663.04308-.1575.08286-.2735.11932-.1127.03314-.2403.06463-.3828.09446-.1425.02651-.285.05137-.4275.07457-.1426.01989-.2718.03811-.3878.05469-.2486.03646-.4657.09446-.6513.174-.1856.07955-.3298.18727-.4325.32316-.1028.13257-.1542.29829-.1542.49716 0 .28835.1044.50875.3133.66122.2121.14914.4805.22372.8054.22372zm8.7872 1.46657c-.7822 0-1.455-.1657-2.0184-.4971-.5602-.3348-.991-.79878-1.2926-1.39206-.2983-.59327-.4475-1.27604-.4475-2.04829 0-.7822.1508-1.46828.4524-2.05824.305-.59328.7375-1.05564 1.2976-1.38708.5601-.33475 1.2263-.50213 1.9986-.50213.6662 0 1.2495.12098 1.75.36293s.8965.58168 1.1882 1.01918.4524.95123.4823 1.54119h-1.9986c-.0564-.38116-.2055-.68774-.4475-.91974-.2386-.23533-.5518-.35299-.9396-.35299-.3281 0-.6148.08949-.8601.26847-.2419.17566-.4309.43253-.5667.7706-.1359.33806-.2039.74739-.2039 1.22798 0 .48721.0663.90151.1989 1.2429.1359.34138.3264.60156.5717.78054.2453.17897.532.26846.8601.26846.2419 0 .459-.04971.6513-.14915.1955-.09943.3563-.2436.4822-.43252.1293-.19224.2138-.42259.2536-.69106h1.9986c-.0332.58334-.1923 1.09707-.4773 1.5412-.2817.44081-.6712.78551-1.1683 1.03411-.4972.2486-1.0855.3728-1.765.3728zm6.0741 2.7145c-.2685 0-.5204-.0215-.7557-.0646-.232-.0398-.4242-.0911-.5767-.1541l.4773-1.581c.2485.0763.4723.1177.6711.1243.2022.0066.3762-.0398.522-.1392.1492-.0994.2702-.2685.363-.5071l.1243-.3231-2.7394-7.85516h2.2273l1.581 5.60795h.0795l1.5959-5.60795h2.2422l-2.9681 8.46166c-.1425.411-.3364.7689-.5816 1.0738-.242.3083-.5486.5453-.9198.711-.3712.169-.8186.2535-1.3423.2535zm13.5625.0696c-1.0573 0-1.9986-.1441-2.8239-.4325-.8253-.285-1.5229-.7043-2.093-1.2578-.5701-.5502-1.0043-1.223-1.3026-2.0185-.2983-.79542-.4474-1.70025-.4474-2.71446 0-1.00094.1491-1.90909.4474-2.72443.3016-.81534.7408-1.51468 1.3175-2.09801.5767-.58665 1.281-1.03741 2.1129-1.35227.8352-.31487 1.7865-.472304 2.8537-.472304.9877 0 1.8693.144174 2.6449.432524.7789.28836 1.4384.69934 1.9787 1.23296.5436.5303.9562 1.16169 1.2379 1.89418.2851.72916.4259 1.53622.4226 2.42116.0033.60985-.0497 1.16998-.1591 1.6804-.1094.51041-.2817.9562-.517 1.33736-.232.37779-.537.67779-.9148.89989-.3778.2187-.8352.343-1.3722.3728-.3844.0299-.696.0017-.9346-.0845-.2387-.0862-.421-.2138-.5469-.3828-.1226-.1723-.2022-.3729-.2386-.6016h-.0597c-.0795.1989-.2353.3795-.4673.5419-.232.1591-.5154.2834-.8502.3729-.3314.0862-.6844.1177-1.0589.0945-.3911-.0232-.7623-.1144-1.1137-.2735-.348-.1591-.6579-.3894-.9296-.691-.2685-.30162-.4806-.67449-.6364-1.11862-.1525-.44413-.2304-.95786-.2337-1.5412.0033-.5767.0845-1.07883.2436-1.50639.1624-.42756.3762-.78717.6414-1.07883.2684-.29167.5667-.52036.8949-.68608.3281-.16572.6579-.27178.9893-.31818.3745-.05635.7292-.05635 1.0639 0 .3348.05634.6165.14749.8452.27343.232.12595.3762.26184.4325.40767h.0696v-.55682h1.5561v4.85228c.0034.22869.0547.40601.1542.53196.0994.12595.2336.18892.4027.18892.2286 0 .4192-.10109.5717-.30327.1558-.20218.2718-.51207.348-.92969.0795-.41761.1193-.94957.1193-1.59588 0-.6231-.0828-1.16998-.2486-1.64062-.1624-.47396-.3911-.87666-.686-1.2081-.2917-.33475-.6314-.60653-1.0192-.81534s-.8087-.36127-1.2628-.45739c-.4508-.09611-.9148-.14417-1.392-.14417-.8253 0-1.5462.12595-2.1627.37784-.6165.24858-1.1302.59825-1.5412 1.049-.411.45076-.7192.97941-.9247 1.58594-.2022.60322-.3049 1.26113-.3082 1.97372.0033.78552.1127 1.48154.3281 2.08807.2187.60325.5402 1.11035.9645 1.52135.4242.4109.9479.7225 1.571.9346s1.339.3182 2.1477.3182c.3812 0 .7541-.0282 1.1186-.0845.3646-.053.6944-.1193.9894-.1989.295-.0762.5319-.1508.7109-.2237l.4922 1.4418c-.2088.1193-.4922.2303-.8501.3331-.3547.106-.7557.1905-1.2032.2535-.4441.0663-.9015.0994-1.3721.0994zm-.2287-4.49428c.4043 0 .7258-.07789.9645-.23366.2419-.15578.4143-.38613.517-.69106.1061-.30823.1558-.68773.1492-1.13849-.0033-.39773-.0547-.73414-.1542-1.00923-.0961-.27841-.2634-.48888-.5021-.63139-.2353-.14584-.5634-.21875-.9844-.21875-.3679 0-.6811.07788-.9396.23366-.2552.15578-.4507.37453-.5866.65625-.1326.27841-.2006.60653-.2039.98437.0033.35133.0597.68443.1691.99929.1093.31156.29.56511.5419.76066.2519.19223.5949.28835 1.0291.28835zm12.0921-6.07528v1.59091h-4.713v-1.59091zm-3.6342 7.63636v-8.18821c0-.5535.1077-1.01255.3232-1.37713.2187-.36458.517-.638022.8948-.820314.3779-.182292.8071-.273438 1.2877-.273438.3248 0 .6214.024859.8899.074575.2718.049716.474.09446.6065.134233l-.3778 1.590904c-.0829-.02651-.1856-.05137-.3082-.07457-.1194-.0232-.242-.0348-.3679-.0348-.3116 0-.5287.07292-.6513.21875-.1227.14252-.184.34304-.184.60156v8.14844zm4.9281 0v-7.63636h2.1179v7.63636zm1.0639-8.62074c-.3149 0-.585-.1044-.8104-.31321-.222-.21212-.3331-.46567-.3331-.76065 0-.29167.1111-.541906.3331-.750712.2254-.212122.4955-.318183.8104-.318183s.5833.106061.8054.318183c.2254.208806.3381.459042.3381.750712 0 .29498-.1127.54853-.3381.76065-.2221.20881-.4905.31321-.8054.31321zm6.8571.98438v1.59091h-4.7131v-1.59091zm-3.6343 7.63636v-8.18821c0-.5535.1078-1.01255.3232-1.37713.2188-.36458.517-.638022.8949-.820314.3778-.182292.807-.273438 1.2876-.273438.3248 0 .6215.024859.8899.074575.2718.049716.474.09446.6066.134233l-.3779 1.590904c-.0828-.02651-.1856-.05137-.3082-.07457-.1193-.0232-.2419-.0348-.3679-.0348-.3115 0-.5286.07292-.6513.21875-.1226.14252-.1839.34304-.1839.60156v8.14844zm8.9899-7.63636v1.59091h-4.5987v-1.59091zm-3.5547-1.82955h2.1179v7.11932c0 .19555.0299.34801.0895.45739.0597.10606.1425.18063.2486.22372.1094.04308.2353.06463.3778.06463.0995 0 .1989-.00829.2983-.02486.0995-.01989.1757-.0348.2287-.04474l.3331 1.57595c-.106.0332-.2552.0713-.4474.1144-.1922.0464-.4259.0746-.701.0845-.5104.0199-.9579-.0481-1.3423-.2038-.3812-.1558-.6778-.3978-.8899-.7259-.2122-.32811-.3166-.74241-.3133-1.24288zm7.2163 5.05114v4.41477h-2.1179v-10.181818h2.0582v3.892758h.0895c.1724-.45076.4508-.80374.8353-1.05895.3844-.25852.8667-.38779 1.4467-.38779.5303 0 .9927.11601 1.3871.34802.3977.22869.7059.55847.9247.98934.2221.42756.3314.93963.3281 1.53622v4.86222h-2.1179v-4.48438c.0033-.47064-.116-.83688-.3579-1.09872-.2387-.26183-.5734-.39275-1.0043-.39275-.2884 0-.5436.06131-.7656.18395-.2188.12263-.3911.30161-.5171.53693-.1226.23201-.1856.51207-.1889.8402zm10.6802-3.22159v1.59091h-4.5987v-1.59091zm-3.5547-1.82955h2.1179v7.11932c0 .19555.0299.34801.0895.45739.0597.10606.1425.18063.2486.22372.1094.04308.2353.06463.3778.06463.0995 0 .1989-.00829.2983-.02486.0995-.01989.1757-.0348.2287-.04474l.3331 1.57595c-.106.0332-.2552.0713-.4474.1144-.1922.0464-.4259.0746-.701.0845-.5104.0199-.9579-.0481-1.3423-.2038-.3812-.1558-.6778-.3978-.89-.7259-.2121-.32811-.3165-.74241-.3132-1.24288zm4.9345 9.46591v-7.63636h2.053v1.33238h.08c.139-.47396.373-.83191.701-1.07386.328-.24527.706-.3679 1.133-.3679.106 0 .221.00663.343.01989.123.01326.231.03148.323.05468v1.87927c-.099-.02983-.237-.05635-.412-.07955-.176-.0232-.337-.0348-.483-.0348-.311 0-.589.06795-.835.20384-.242.13257-.434.31818-.576.55681-.14.23864-.209.51373-.209.82529v4.32031zm7.268 2.8636c-.268 0-.52-.0215-.755-.0646-.232-.0398-.425-.0911-.577-.1541l.477-1.581c.249.0763.472.1177.671.1243.203.0066.377-.0398.522-.1392.15-.0994.27-.2685.363-.5071l.125-.3231-2.74-7.85516h2.228l1.58 5.60795h.08l1.596-5.60795h2.242l-2.968 8.46166c-.142.411-.336.7689-.582 1.0738-.242.3083-.548.5453-.919.711-.372.169-.819.2535-1.343.2535zm7.655-2.7343c-.328 0-.61-.116-.845-.3481-.232-.2353-.348-.517-.348-.84512 0-.32481.116-.60322.348-.83523.235-.23201.517-.34801.845-.34801.318 0 .597.116.836.34801.238.23201.357.51042.357.83523 0 .21872-.056.41932-.169.60152-.109.179-.253.3232-.432.4326-.179.106-.376.1591-.592.1591zm6.383.0198c-.783 0-1.455-.1657-2.019-.4971-.56-.3348-.991-.79878-1.292-1.39206-.299-.59327-.448-1.27604-.448-2.04829 0-.7822.151-1.46828.452-2.05824.305-.59328.738-1.05564 1.298-1.38708.56-.33475 1.226-.50213 1.999-.50213.666 0 1.249.12098 1.75.36293.5.24195.896.58168 1.188 1.01918s.452.95123.482 1.54119h-1.998c-.057-.38116-.206-.68774-.448-.91974-.239-.23533-.552-.35299-.94-.35299-.328 0-.614.08949-.86.26847-.242.17566-.431.43253-.566.7706-.136.33806-.204.74739-.204 1.22798 0 .48721.066.90151.199 1.2429.136.34138.326.60156.571.78054.246.17897.532.26846.86.26846.242 0 .459-.04971.652-.14915.195-.09943.356-.2436.482-.43252.129-.19224.214-.42259.254-.69106h1.998c-.033.58334-.192 1.09707-.477 1.5412-.282.44081-.671.78551-1.168 1.03411-.498.2486-1.086.3728-1.765.3728zm8.216 0c-.772 0-1.44-.164-2.003-.4921-.56-.3315-.993-.79218-1.298-1.38214-.305-.59328-.457-1.28102-.457-2.06321 0-.78883.152-1.47822.457-2.06818.305-.59328.738-1.05398 1.298-1.38211.563-.33144 1.231-.49716 2.003-.49716.773 0 1.439.16572 1.999.49716.563.32813.998.78883 1.303 1.38211.304.58996.457 1.27935.457 2.06818 0 .78219-.153 1.46993-.457 2.06321-.305.58996-.74 1.05064-1.303 1.38214-.56.3281-1.226.4921-1.999.4921zm.01-1.64058c.352 0 .645-.09943.88-.29829.236-.20218.413-.47728.532-.82529.123-.34801.184-.74408.184-1.18821s-.061-.8402-.184-1.18821c-.119-.34801-.296-.6231-.532-.82528-.235-.20218-.528-.30327-.88-.30327-.354 0-.653.10109-.895.30327-.238.20218-.419.47727-.541.82528-.12.34801-.179.74408-.179 1.18821s.059.8402.179 1.18821c.122.34801.303.62311.541.82529.242.19886.541.29829.895.29829zm5.126 1.49148v-7.63636h2.019v1.3473h.089c.159-.44745.424-.80043.795-1.05895.372-.25852.816-.38779 1.333-.38779.524 0 .969.13092 1.337.39276.368.25852.613.60985.736 1.05398h.08c.155-.4375.437-.78717.845-1.04901.411-.26515.896-.39773 1.456-.39773.713 0 1.291.22704 1.735.68111.448.45076.672 1.09044.672 1.91904v5.13565h-2.113v-4.71804c0-.42424-.113-.74242-.338-.95455-.226-.21212-.507-.31818-.846-.31818-.384 0-.684.12264-.899.3679-.216.24195-.324.56179-.324.95952v4.66335h-2.053v-4.76278c0-.37453-.108-.67283-.323-.89489-.212-.22207-.492-.3331-.84-.3331-.235 0-.448.05966-.637.17898-.185.116-.333.28007-.442.49219-.109.2088-.164.45407-.164.73579v4.58381z" fill="#2dd4bf"/></svg>