<svg width="147" height="14" viewBox="0 0 147 14" fill="none" xmlns="http://www.w3.org/2000/svg">
<path d="M0.84517 13.8636V3.36364H2.93324V4.64631H3.0277C3.1205 4.44081 3.25473 4.23201 3.4304 4.01989C3.60938 3.80445 3.84138 3.62547 4.12642 3.48295C4.41477 3.33712 4.77273 3.2642 5.20028 3.2642C5.7571 3.2642 6.27083 3.41004 6.74148 3.7017C7.21212 3.99006 7.58831 4.4259 7.87003 5.00923C8.15175 5.58925 8.29261 6.31676 8.29261 7.19176C8.29261 8.04356 8.15507 8.76278 7.87997 9.34943C7.60819 9.93277 7.23698 10.3752 6.76634 10.6768C6.29901 10.9751 5.77533 11.1243 5.19531 11.1243C4.78433 11.1243 4.43466 11.0563 4.14631 10.9205C3.86127 10.7846 3.6276 10.6139 3.44531 10.4084C3.26302 10.1996 3.12382 9.98911 3.0277 9.77699H2.96307V13.8636H0.84517ZM2.91832 7.18182C2.91832 7.63589 2.9813 8.03196 3.10724 8.37003C3.23319 8.7081 3.41548 8.97159 3.65412 9.16051C3.89276 9.34612 4.18277 9.43892 4.52415 9.43892C4.86884 9.43892 5.16051 9.34446 5.39915 9.15554C5.63778 8.9633 5.81842 8.69815 5.94105 8.36009C6.067 8.0187 6.12997 7.62595 6.12997 7.18182C6.12997 6.741 6.06866 6.35322 5.94602 6.01847C5.82339 5.68371 5.64276 5.42187 5.40412 5.23295C5.16548 5.04403 4.87216 4.94957 4.52415 4.94957C4.17945 4.94957 3.88778 5.04072 3.64915 5.22301C3.41383 5.4053 3.23319 5.66383 3.10724 5.99858C2.9813 6.33333 2.91832 6.72775 2.91832 7.18182ZM9.70455 11V3.36364H11.7578V4.69602H11.8374C11.9766 4.22206 12.2102 3.86411 12.5384 3.62216C12.8665 3.37689 13.2443 3.25426 13.6719 3.25426C13.7779 3.25426 13.8923 3.26089 14.0149 3.27415C14.1375 3.28741 14.2453 3.30563 14.3381 3.32883V5.2081C14.2386 5.17827 14.1011 5.15175 13.9254 5.12855C13.7498 5.10535 13.589 5.09375 13.4432 5.09375C13.1316 5.09375 12.8532 5.1617 12.608 5.29759C12.366 5.43016 12.1738 5.61577 12.0312 5.8544C11.892 6.09304 11.8224 6.36813 11.8224 6.67969V11H9.70455ZM15.4331 11V3.36364H17.551V11H15.4331ZM16.497 2.37926C16.1821 2.37926 15.912 2.27486 15.6866 2.06605C15.4645 1.85393 15.3535 1.60038 15.3535 1.3054C15.3535 1.01373 15.4645 0.763494 15.6866 0.554688C15.912 0.342566 16.1821 0.236505 16.497 0.236505C16.8118 0.236505 17.0803 0.342566 17.3024 0.554688C17.5278 0.763494 17.6404 1.01373 17.6404 1.3054C17.6404 1.60038 17.5278 1.85393 17.3024 2.06605C17.0803 2.27486 16.8118 2.37926 16.497 2.37926ZM26.3668 3.36364L23.6971 11H21.3107L18.641 3.36364H20.8782L22.4641 8.82741H22.5437L24.1246 3.36364H26.3668ZM29.4231 11.1442C28.9359 11.1442 28.5017 11.0597 28.1206 10.8906C27.7394 10.7183 27.4378 10.4647 27.2157 10.13C26.997 9.7919 26.8876 9.37098 26.8876 8.86719C26.8876 8.44295 26.9655 8.08665 27.1213 7.7983C27.277 7.50994 27.4892 7.27794 27.7576 7.10227C28.0261 6.92661 28.331 6.79403 28.6724 6.70455C29.0171 6.61506 29.3784 6.55208 29.7562 6.51562C30.2003 6.46922 30.5583 6.42614 30.8301 6.38636C31.1019 6.34328 31.2991 6.2803 31.4217 6.19744C31.5443 6.11458 31.6056 5.99195 31.6056 5.82955V5.79972C31.6056 5.48485 31.5062 5.24124 31.3074 5.06889C31.1118 4.89654 30.8334 4.81037 30.4721 4.81037C30.091 4.81037 29.7877 4.89489 29.5623 5.06392C29.3369 5.22964 29.1878 5.43845 29.1149 5.69034L27.1561 5.53125C27.2555 5.06723 27.4511 4.66619 27.7427 4.32812C28.0344 3.98674 28.4106 3.7249 28.8713 3.54261C29.3353 3.35701 29.8722 3.2642 30.4821 3.2642C30.9063 3.2642 31.3123 3.31392 31.7001 3.41335C32.0912 3.51278 32.4376 3.6669 32.7392 3.87571C33.0441 4.08452 33.2844 4.35298 33.46 4.68111C33.6357 5.00592 33.7235 5.39536 33.7235 5.84943V11H31.715V9.94105H31.6554C31.5327 10.1797 31.3687 10.3902 31.1632 10.5724C30.9577 10.7514 30.7108 10.8923 30.4224 10.995C30.1341 11.0945 29.801 11.1442 29.4231 11.1442ZM30.0297 9.68253C30.3412 9.68253 30.6163 9.62121 30.8549 9.49858C31.0936 9.37263 31.2808 9.2036 31.4167 8.99148C31.5526 8.77936 31.6206 8.53906 31.6206 8.2706V7.46023C31.5543 7.50331 31.4631 7.54309 31.3471 7.57955C31.2344 7.61269 31.1068 7.64418 30.9643 7.67401C30.8218 7.70052 30.6793 7.72538 30.5368 7.74858C30.3942 7.76847 30.265 7.78669 30.149 7.80327C29.9004 7.83973 29.6833 7.89773 29.4977 7.97727C29.3121 8.05682 29.1679 8.16454 29.0652 8.30043C28.9624 8.433 28.911 8.59872 28.911 8.79759C28.911 9.08594 29.0154 9.30634 29.2243 9.45881C29.4364 9.60795 29.7048 9.68253 30.0297 9.68253ZM38.8169 11.1491C38.0347 11.1491 37.3619 10.9834 36.7985 10.652C36.2383 10.3172 35.8075 9.85322 35.5059 9.25994C35.2076 8.66667 35.0584 7.9839 35.0584 7.21165C35.0584 6.42945 35.2092 5.74337 35.5108 5.15341C35.8158 4.56013 36.2483 4.09777 36.8084 3.76633C37.3685 3.43158 38.0347 3.2642 38.807 3.2642C39.4732 3.2642 40.0565 3.38518 40.557 3.62713C41.0575 3.86908 41.4535 4.20881 41.7452 4.64631C42.0369 5.08381 42.1976 5.59754 42.2275 6.1875H40.2289C40.1725 5.80634 40.0234 5.49976 39.7814 5.26776C39.5428 5.03243 39.2296 4.91477 38.8418 4.91477C38.5137 4.91477 38.227 5.00426 37.9817 5.18324C37.7398 5.3589 37.5508 5.61577 37.415 5.95384C37.2791 6.2919 37.2111 6.70123 37.2111 7.18182C37.2111 7.66903 37.2774 8.08333 37.41 8.42472C37.5459 8.7661 37.7364 9.02628 37.9817 9.20526C38.227 9.38423 38.5137 9.47372 38.8418 9.47372C39.0837 9.47372 39.3008 9.42401 39.4931 9.32457C39.6886 9.22514 39.8494 9.08097 39.9753 8.89205C40.1046 8.69981 40.1891 8.46946 40.2289 8.20099H42.2275C42.1943 8.78433 42.0352 9.29806 41.7502 9.74219C41.4685 10.183 41.079 10.5277 40.5819 10.7763C40.0847 11.0249 39.4964 11.1491 38.8169 11.1491ZM44.891 13.8636C44.6225 13.8636 44.3706 13.8421 44.1353 13.799C43.9033 13.7592 43.7111 13.7079 43.5586 13.6449L44.0359 12.0639C44.2844 12.1402 44.5082 12.1816 44.707 12.1882C44.9092 12.1948 45.0832 12.1484 45.229 12.049C45.3782 11.9496 45.4992 11.7805 45.592 11.5419L45.7163 11.2188L42.9769 3.36364H45.2042L46.7852 8.97159H46.8647L48.4606 3.36364H50.7028L47.7347 11.8253C47.5922 12.2363 47.3983 12.5942 47.1531 12.8991C46.9111 13.2074 46.6045 13.4444 46.2333 13.6101C45.8621 13.7791 45.4147 13.8636 44.891 13.8636ZM58.4535 13.9332C57.3962 13.9332 56.4549 13.7891 55.6296 13.5007C54.8043 13.2157 54.1067 12.7964 53.5366 12.2429C52.9665 11.6927 52.5323 11.0199 52.234 10.2244C51.9357 9.42898 51.7866 8.52415 51.7866 7.50994C51.7866 6.509 51.9357 5.60085 52.234 4.78551C52.5356 3.97017 52.9748 3.27083 53.5515 2.6875C54.1282 2.10085 54.8325 1.65009 55.6644 1.33523C56.4996 1.02036 57.4509 0.862926 58.5181 0.862926C59.5058 0.862926 60.3874 1.0071 61.163 1.29545C61.9419 1.58381 62.6014 1.99479 63.1417 2.52841C63.6853 3.05871 64.0979 3.6901 64.3796 4.42259C64.6647 5.15175 64.8055 5.95881 64.8022 6.84375C64.8055 7.4536 64.7525 8.01373 64.6431 8.52415C64.5337 9.03456 64.3614 9.48035 64.1261 9.86151C63.8941 10.2393 63.5891 10.5393 63.2113 10.7614C62.8335 10.9801 62.3761 11.1044 61.8391 11.1342C61.4547 11.1641 61.1431 11.1359 60.9045 11.0497C60.6658 10.9635 60.4835 10.8359 60.3576 10.6669C60.235 10.4946 60.1554 10.294 60.119 10.0653H60.0593C59.9798 10.2642 59.824 10.4448 59.592 10.6072C59.36 10.7663 59.0766 10.8906 58.7418 10.9801C58.4104 11.0663 58.0574 11.0978 57.6829 11.0746C57.2918 11.0514 56.9206 10.9602 56.5692 10.8011C56.2212 10.642 55.9113 10.4117 55.6396 10.1101C55.3711 9.80848 55.159 9.43561 55.0032 8.99148C54.8507 8.54735 54.7728 8.03362 54.7695 7.45028C54.7728 6.87358 54.854 6.37145 55.0131 5.94389C55.1755 5.51633 55.3893 5.15672 55.6545 4.86506C55.9229 4.57339 56.2212 4.3447 56.5494 4.17898C56.8775 4.01326 57.2073 3.9072 57.5387 3.8608C57.9132 3.80445 58.2679 3.80445 58.6026 3.8608C58.9374 3.91714 59.2191 4.00829 59.4478 4.13423C59.6798 4.26018 59.824 4.39607 59.8803 4.5419H59.9499V3.98508H61.506V8.83736C61.5094 9.06605 61.5607 9.24337 61.6602 9.36932C61.7596 9.49527 61.8938 9.55824 62.0629 9.55824C62.2915 9.55824 62.4821 9.45715 62.6346 9.25497C62.7904 9.05279 62.9064 8.7429 62.9826 8.32528C63.0621 7.90767 63.1019 7.37571 63.1019 6.7294C63.1019 6.1063 63.0191 5.55942 62.8533 5.08878C62.6909 4.61482 62.4622 4.21212 62.1673 3.88068C61.8756 3.54593 61.5359 3.27415 61.1481 3.06534C60.7603 2.85653 60.3394 2.70407 59.8853 2.60795C59.4345 2.51184 58.9705 2.46378 58.4933 2.46378C57.668 2.46378 56.9471 2.58973 56.3306 2.84162C55.7141 3.0902 55.2004 3.43987 54.7894 3.89062C54.3784 4.34138 54.0702 4.87003 53.8647 5.47656C53.6625 6.07978 53.5598 6.73769 53.5565 7.45028C53.5598 8.2358 53.6692 8.93182 53.8846 9.53835C54.1033 10.1416 54.4248 10.6487 54.8491 11.0597C55.2733 11.4706 55.797 11.7822 56.4201 11.9943C57.0432 12.2064 57.7591 12.3125 58.5678 12.3125C58.949 12.3125 59.3219 12.2843 59.6864 12.228C60.051 12.175 60.3808 12.1087 60.6758 12.0291C60.9708 11.9529 61.2077 11.8783 61.3867 11.8054L61.8789 13.2472C61.6701 13.3665 61.3867 13.4775 61.0288 13.5803C60.6741 13.6863 60.2731 13.7708 59.8256 13.8338C59.3815 13.9001 58.9241 13.9332 58.4535 13.9332ZM58.2248 9.43892C58.6291 9.43892 58.9506 9.36103 59.1893 9.20526C59.4312 9.04948 59.6036 8.81913 59.7063 8.5142C59.8124 8.20597 59.8621 7.82647 59.8555 7.37571C59.8522 6.97798 59.8008 6.64157 59.7013 6.36648C59.6052 6.08807 59.4379 5.8776 59.1992 5.73509C58.9639 5.58925 58.6358 5.51634 58.2148 5.51634C57.8469 5.51634 57.5337 5.59422 57.2752 5.75C57.02 5.90578 56.8245 6.12453 56.6886 6.40625C56.556 6.68466 56.488 7.01278 56.4847 7.39062C56.488 7.74195 56.5444 8.07505 56.6538 8.38991C56.7631 8.70147 56.9438 8.95502 57.1957 9.15057C57.4476 9.3428 57.7906 9.43892 58.2248 9.43892ZM70.3169 3.36364V4.95455H65.6039V3.36364H70.3169ZM66.6827 11V2.81179C66.6827 2.25829 66.7904 1.79924 67.0059 1.43466C67.2246 1.07008 67.5229 0.796638 67.9007 0.614346C68.2786 0.432054 68.7078 0.340908 69.1884 0.340908C69.5132 0.340908 69.8098 0.365767 70.0783 0.415483C70.3501 0.465199 70.5523 0.509943 70.6848 0.549716L70.307 2.14062C70.2241 2.11411 70.1214 2.08925 69.9988 2.06605C69.8794 2.04285 69.7568 2.03125 69.6309 2.03125C69.3193 2.03125 69.1022 2.10417 68.9796 2.25C68.8569 2.39252 68.7956 2.59304 68.7956 2.85156V11H66.6827ZM71.6108 11V3.36364H73.7287V11H71.6108ZM72.6747 2.37926C72.3598 2.37926 72.0897 2.27486 71.8643 2.06605C71.6423 1.85393 71.5312 1.60038 71.5312 1.3054C71.5312 1.01373 71.6423 0.763494 71.8643 0.554688C72.0897 0.342566 72.3598 0.236505 72.6747 0.236505C72.9896 0.236505 73.258 0.342566 73.4801 0.554688C73.7055 0.763494 73.8182 1.01373 73.8182 1.3054C73.8182 1.60038 73.7055 1.85393 73.4801 2.06605C73.258 2.27486 72.9896 2.37926 72.6747 2.37926ZM79.5318 3.36364V4.95455H74.8187V3.36364H79.5318ZM75.8975 11V2.81179C75.8975 2.25829 76.0053 1.79924 76.2207 1.43466C76.4395 1.07008 76.7377 0.796638 77.1156 0.614346C77.4934 0.432054 77.9226 0.340908 78.4032 0.340908C78.728 0.340908 79.0247 0.365767 79.2931 0.415483C79.5649 0.465199 79.7671 0.509943 79.8997 0.549716L79.5218 2.14062C79.439 2.11411 79.3362 2.08925 79.2136 2.06605C79.0943 2.04285 78.9717 2.03125 78.8457 2.03125C78.5342 2.03125 78.3171 2.10417 78.1944 2.25C78.0718 2.39252 78.0105 2.59304 78.0105 2.85156V11H75.8975ZM84.8874 3.36364V4.95455H80.2887V3.36364H84.8874ZM81.3327 1.53409H83.4506V8.65341C83.4506 8.84896 83.4805 9.00142 83.5401 9.1108C83.5998 9.21686 83.6826 9.29143 83.7887 9.33452C83.8981 9.3776 84.024 9.39915 84.1665 9.39915C84.266 9.39915 84.3654 9.39086 84.4648 9.37429C84.5643 9.3544 84.6405 9.33949 84.6935 9.32955L85.0266 10.9055C84.9206 10.9387 84.7714 10.9768 84.5792 11.0199C84.387 11.0663 84.1533 11.0945 83.8782 11.1044C83.3678 11.1243 82.9203 11.0563 82.5359 10.9006C82.1547 10.7448 81.8581 10.5028 81.646 10.1747C81.4338 9.84659 81.3294 9.43229 81.3327 8.93182V1.53409ZM88.549 6.58523V11H86.4311V0.818182H88.4893V4.71094H88.5788C88.7512 4.26018 89.0296 3.9072 89.4141 3.65199C89.7985 3.39347 90.2808 3.2642 90.8608 3.2642C91.3911 3.2642 91.8535 3.38021 92.2479 3.61222C92.6456 3.84091 92.9538 4.17069 93.1726 4.60156C93.3947 5.02912 93.504 5.54119 93.5007 6.13778V11H91.3828V6.51562C91.3861 6.04498 91.2668 5.67874 91.0249 5.4169C90.7862 5.15507 90.4515 5.02415 90.0206 5.02415C89.7322 5.02415 89.477 5.08546 89.255 5.2081C89.0362 5.33073 88.8639 5.50971 88.7379 5.74503C88.6153 5.97704 88.5523 6.2571 88.549 6.58523ZM99.2292 3.36364V4.95455H94.6305V3.36364H99.2292ZM95.6745 1.53409H97.7924V8.65341C97.7924 8.84896 97.8223 9.00142 97.8819 9.1108C97.9416 9.21686 98.0244 9.29143 98.1305 9.33452C98.2399 9.3776 98.3658 9.39915 98.5083 9.39915C98.6078 9.39915 98.7072 9.39086 98.8066 9.37429C98.9061 9.3544 98.9823 9.33949 99.0353 9.32955L99.3684 10.9055C99.2624 10.9387 99.1132 10.9768 98.921 11.0199C98.7288 11.0663 98.4951 11.0945 98.22 11.1044C97.7096 11.1243 97.2621 11.0563 96.8777 10.9006C96.4965 10.7448 96.1999 10.5028 95.9877 10.1747C95.7756 9.84659 95.6712 9.43229 95.6745 8.93182V1.53409ZM100.609 11V3.36364H102.662V4.69602H102.742C102.881 4.22206 103.115 3.86411 103.443 3.62216C103.771 3.37689 104.149 3.25426 104.576 3.25426C104.682 3.25426 104.797 3.26089 104.919 3.27415C105.042 3.28741 105.15 3.30563 105.242 3.32883V5.2081C105.143 5.17827 105.005 5.15175 104.83 5.12855C104.654 5.10535 104.493 5.09375 104.347 5.09375C104.036 5.09375 103.758 5.1617 103.512 5.29759C103.27 5.43016 103.078 5.61577 102.936 5.8544C102.796 6.09304 102.727 6.36813 102.727 6.67969V11H100.609ZM107.877 13.8636C107.609 13.8636 107.357 13.8421 107.122 13.799C106.89 13.7592 106.697 13.7079 106.545 13.6449L107.022 12.0639C107.271 12.1402 107.494 12.1816 107.693 12.1882C107.896 12.1948 108.07 12.1484 108.215 12.049C108.365 11.9496 108.485 11.7805 108.578 11.5419L108.703 11.2188L105.963 3.36364H108.191L109.771 8.97159H109.851L111.447 3.36364H113.689L110.721 11.8253C110.579 12.2363 110.385 12.5942 110.139 12.8991C109.897 13.2074 109.591 13.4444 109.22 13.6101C108.848 13.7791 108.401 13.8636 107.877 13.8636ZM115.532 11.1293C115.204 11.1293 114.922 11.0133 114.687 10.7812C114.455 10.5459 114.339 10.2642 114.339 9.93608C114.339 9.61127 114.455 9.33286 114.687 9.10085C114.922 8.86884 115.204 8.75284 115.532 8.75284C115.85 8.75284 116.129 8.86884 116.368 9.10085C116.606 9.33286 116.725 9.61127 116.725 9.93608C116.725 10.1548 116.669 10.3554 116.556 10.5376C116.447 10.7166 116.303 10.8608 116.124 10.9702C115.945 11.0762 115.748 11.1293 115.532 11.1293ZM121.915 11.1491C121.132 11.1491 120.46 10.9834 119.896 10.652C119.336 10.3172 118.905 9.85322 118.604 9.25994C118.305 8.66667 118.156 7.9839 118.156 7.21165C118.156 6.42945 118.307 5.74337 118.608 5.15341C118.913 4.56013 119.346 4.09777 119.906 3.76633C120.466 3.43158 121.132 3.2642 121.905 3.2642C122.571 3.2642 123.154 3.38518 123.655 3.62713C124.155 3.86908 124.551 4.20881 124.843 4.64631C125.135 5.08381 125.295 5.59754 125.325 6.1875H123.327C123.27 5.80634 123.121 5.49976 122.879 5.26776C122.64 5.03243 122.327 4.91477 121.939 4.91477C121.611 4.91477 121.325 5.00426 121.079 5.18324C120.837 5.3589 120.648 5.61577 120.513 5.95384C120.377 6.2919 120.309 6.70123 120.309 7.18182C120.309 7.66903 120.375 8.08333 120.508 8.42472C120.644 8.7661 120.834 9.02628 121.079 9.20526C121.325 9.38423 121.611 9.47372 121.939 9.47372C122.181 9.47372 122.398 9.42401 122.591 9.32457C122.786 9.22514 122.947 9.08097 123.073 8.89205C123.202 8.69981 123.287 8.46946 123.327 8.20099H125.325C125.292 8.78433 125.133 9.29806 124.848 9.74219C124.566 10.183 124.177 10.5277 123.68 10.7763C123.182 11.0249 122.594 11.1491 121.915 11.1491ZM130.131 11.1491C129.359 11.1491 128.691 10.9851 128.128 10.657C127.568 10.3255 127.135 9.86482 126.83 9.27486C126.525 8.68158 126.373 7.99384 126.373 7.21165C126.373 6.42282 126.525 5.73343 126.83 5.14347C127.135 4.55019 127.568 4.08949 128.128 3.76136C128.691 3.42992 129.359 3.2642 130.131 3.2642C130.904 3.2642 131.57 3.42992 132.13 3.76136C132.693 4.08949 133.128 4.55019 133.433 5.14347C133.737 5.73343 133.89 6.42282 133.89 7.21165C133.89 7.99384 133.737 8.68158 133.433 9.27486C133.128 9.86482 132.693 10.3255 132.13 10.657C131.57 10.9851 130.904 11.1491 130.131 11.1491ZM130.141 9.50852C130.493 9.50852 130.786 9.40909 131.021 9.21023C131.257 9.00805 131.434 8.73295 131.553 8.38494C131.676 8.03693 131.737 7.64086 131.737 7.19673C131.737 6.7526 131.676 6.35653 131.553 6.00852C131.434 5.66051 131.257 5.38542 131.021 5.18324C130.786 4.98106 130.493 4.87997 130.141 4.87997C129.787 4.87997 129.488 4.98106 129.246 5.18324C129.008 5.38542 128.827 5.66051 128.705 6.00852C128.585 6.35653 128.526 6.7526 128.526 7.19673C128.526 7.64086 128.585 8.03693 128.705 8.38494C128.827 8.73295 129.008 9.00805 129.246 9.21023C129.488 9.40909 129.787 9.50852 130.141 9.50852ZM135.267 11V3.36364H137.286V4.71094H137.375C137.534 4.26349 137.799 3.91051 138.17 3.65199C138.542 3.39347 138.986 3.2642 139.503 3.2642C140.027 3.2642 140.472 3.39512 140.84 3.65696C141.208 3.91548 141.453 4.26681 141.576 4.71094H141.656C141.811 4.27344 142.093 3.92377 142.501 3.66193C142.912 3.39678 143.397 3.2642 143.957 3.2642C144.67 3.2642 145.248 3.49124 145.692 3.94531C146.14 4.39607 146.364 5.03575 146.364 5.86435V11H144.251V6.28196C144.251 5.85772 144.138 5.53954 143.913 5.32741C143.687 5.11529 143.406 5.00923 143.067 5.00923C142.683 5.00923 142.383 5.13187 142.168 5.37713C141.952 5.61908 141.844 5.93892 141.844 6.33665V11H139.791V6.23722C139.791 5.86269 139.683 5.56439 139.468 5.34233C139.256 5.12026 138.976 5.00923 138.628 5.00923C138.393 5.00923 138.18 5.06889 137.991 5.18821C137.806 5.30421 137.658 5.46828 137.549 5.6804C137.44 5.8892 137.385 6.13447 137.385 6.41619V11H135.267Z" fill="#2DD4BF"/>
</svg>
