<svg xmlns="http://www.w3.org/2000/svg" width="52" height="52" fill="none" viewBox="0 0 52 52"><circle cx="26" cy="26" r="25.5" fill="#E7F0FE" stroke="#EEE"/><path fill="#F6F6F6" d="M26 1C19.3696 1 13.0107 3.63392 8.32233 8.32233C3.63392 13.0107 1 19.3696 1 26C0.999999 32.6304 3.63392 38.9893 8.32233 43.6777C13.0107 48.3661 19.3696 51 26 51L26 26V1Z"/><path fill="#FDB813" d="M9 30H19C19.5523 30 20 29.5523 20 29V22C20 21.4477 19.5523 21 19 21H9C8.44771 21 8 21.4477 8 22L8 29C8 29.5523 8.44771 30 9 30Z" opacity=".2"/><path stroke="#FDB813" stroke-linecap="round" stroke-linejoin="round" d="M9 30H19C19.5523 30 20 29.5523 20 29V22C20 21.4477 19.5523 21 19 21H9C8.44771 21 8 21.4477 8 22L8 29C8 29.5523 8.44771 30 9 30Z"/><path stroke="#FDB813" stroke-linecap="round" stroke-linejoin="round" d="M16 32H12"/><path fill="#111" d="M26 51C29.283 51 32.5339 50.3534 35.5671 49.097C38.6002 47.8406 41.3562 45.9991 43.6777 43.6777C45.9991 41.3562 47.8406 38.6002 49.097 35.5671C50.3534 32.5339 51 29.283 51 26C51 22.7169 50.3534 19.4661 49.097 16.4329C47.8406 13.3998 45.9991 10.6438 43.6777 8.32233C41.3562 6.00086 38.6002 4.15938 35.5671 2.90301C32.5339 1.64664 29.283 0.999999 26 1L26 26L26 51Z"/><path fill="#FEFCD7" d="M33 30H43C43.5523 30 44 29.5523 44 29V22C44 21.4477 43.5523 21 43 21H33C32.4477 21 32 21.4477 32 22V29C32 29.5523 32.4477 30 33 30Z" opacity=".2"/><path stroke="#FEFCD7" stroke-linecap="round" stroke-linejoin="round" d="M33 30H43C43.5523 30 44 29.5523 44 29V22C44 21.4477 43.5523 21 43 21H33C32.4477 21 32 21.4477 32 22V29C32 29.5523 32.4477 30 33 30Z"/><path stroke="#FEFCD7" stroke-linecap="round" stroke-linejoin="round" d="M40 32H36"/></svg>